<?xml version="1.0" encoding="UTF-8" standalone="no"?>
<svg
   version="1.0"
   width="492.0517pt"
   height="267.82547pt"
   viewBox="0 0 492.0517 267.82547"
   preserveAspectRatio="xMidYMid"
   id="svg489"
   sodipodi:docname="bej1.svg"
   inkscape:version="1.2.1 (9c6d41e, 2022-07-14)"
   xmlns:inkscape="http://www.inkscape.org/namespaces/inkscape"
   xmlns:sodipodi="http://sodipodi.sourceforge.net/DTD/sodipodi-0.dtd"
   xmlns="http://www.w3.org/2000/svg"
   xmlns:svg="http://www.w3.org/2000/svg">
  <defs
     id="defs493" />
  <sodipodi:namedview
     id="namedview491"
     pagecolor="#ffffff"
     bordercolor="#000000"
     borderopacity="0.25"
     inkscape:showpageshadow="2"
     inkscape:pageopacity="0.0"
     inkscape:pagecheckerboard="0"
     inkscape:deskcolor="#d1d1d1"
     inkscape:document-units="pt"
     showgrid="false"
     inkscape:zoom="0.28365385"
     inkscape:cx="327.86441"
     inkscape:cy="178.0339"
     inkscape:window-width="1512"
     inkscape:window-height="917"
     inkscape:window-x="0"
     inkscape:window-y="65"
     inkscape:window-maximized="0"
     inkscape:current-layer="svg489" />
  <metadata
     id="metadata469">
Created by potrace 1.10, written by Peter Selinger 2001-2011
</metadata>
  <g
     transform="matrix(0.1,0,0,-0.1,-202.9483,444.82548)"
     fill="#000000"
     stroke="none"
     id="g487">
    <path
       d="m 2037,4443 c -4,-3 -7,-210 -7,-460 v -453 h 2460 2460 l -2,458 -3,457 -2451,3 c -1348,1 -2454,-1 -2457,-5 z m 4694,-185 c 49,-15 107,-68 137,-126 29,-56 32,-204 4,-255 -35,-64 -56,-89 -96,-115 -35,-22 -52,-26 -122,-26 -66,0 -87,4 -117,23 -36,22 -97,90 -97,108 0,6 -7,24 -16,42 -18,37 -15,143 7,205 17,49 95,129 140,143 47,15 112,15 160,1 z m -4276,-53 c 39,-39 45,-50 45,-87 0,-24 -7,-52 -15,-62 -20,-26 -19,-42 3,-64 10,-10 26,-35 36,-56 17,-36 17,-41 2,-81 -36,-94 -98,-117 -311,-113 l -150,3 v 35 c 0,27 5,36 20,38 43,8 45,18 45,181 0,86 -4,161 -8,167 -4,7 -18,14 -32,15 -25,4 -37,28 -26,55 4,11 37,14 176,14 h 171 z m 433,13 c 3,-29 -6,-34 -73,-40 l -30,-3 v -175 -175 h 100 100 l 10,72 c 11,80 21,96 56,91 24,-3 24,-5 24,-116 0,-89 -3,-115 -15,-122 -8,-5 -108,-10 -221,-10 -225,0 -238,3 -225,55 5,19 13,25 34,25 48,0 52,12 52,175 0,162 -5,181 -49,187 -28,4 -47,29 -38,52 6,15 23,16 139,14 l 133,-3 z m 460,5 c 2,-14 -4,-27 -17,-35 -26,-16 -27,-38 -1,-71 11,-14 20,-29 20,-33 0,-4 7,-16 17,-26 18,-20 43,-24 43,-7 0,6 14,31 30,56 36,52 36,55 10,78 -12,11 -20,28 -18,39 3,20 10,21 103,21 h 100 l 3,-27 c 3,-22 -2,-28 -32,-38 -31,-10 -49,-28 -81,-82 -5,-9 -29,-48 -52,-87 -35,-57 -43,-78 -43,-119 0,-55 15,-75 52,-72 46,4 49,1 46,-37 l -3,-38 -129,-3 c -140,-3 -159,3 -154,47 3,22 8,26 43,29 54,5 65,17 65,68 0,47 -12,74 -78,172 -23,35 -42,66 -42,70 0,14 -45,52 -61,52 -22,0 -41,32 -33,55 5,13 22,15 108,13 95,-3 101,-4 104,-25 z m 674,-98 c 59,-141 76,-181 95,-217 7,-14 13,-33 13,-42 0,-9 16,-26 35,-37 37,-22 46,-54 23,-77 -18,-18 -182,-16 -198,3 -16,19 -5,65 16,65 8,0 24,5 35,10 16,9 17,14 8,33 -18,34 -28,37 -118,37 -73,0 -88,-3 -108,-22 -32,-30 -29,-46 10,-56 25,-6 33,-14 35,-36 2,-16 -2,-33 -10,-37 -15,-10 -158,-12 -182,-3 -27,10 -20,61 10,76 30,15 35,23 97,168 28,66 50,115 58,132 5,10 9,27 9,38 0,17 -7,20 -45,20 -47,0 -71,22 -59,55 5,13 23,15 116,13 l 109,-3 z m 1756,32 3,-88 -38,3 c -37,3 -38,5 -44,46 -3,23 -10,47 -16,53 -6,6 -49,9 -104,7 l -94,-3 -3,-53 c -4,-64 9,-84 52,-80 22,2 35,11 44,30 13,28 52,46 71,33 7,-3 11,-44 11,-96 0,-72 -3,-91 -16,-96 -21,-8 -64,13 -64,31 0,27 -63,45 -87,24 -20,-16 -17,-134 3,-142 24,-9 177,-7 193,3 8,5 17,28 20,52 6,45 28,66 55,56 14,-6 16,-20 14,-99 l -3,-93 h -220 -220 l -3,38 c -3,33 -1,37 20,37 44,0 48,14 48,181 0,163 -2,173 -45,181 -14,2 -21,12 -23,36 l -3,32 223,-2 223,-3 z m 556,84 c 3,-5 9,-54 12,-109 7,-96 6,-100 -15,-111 -49,-27 -67,0 -73,109 l -3,45 h -50 -50 l -3,-171 c -2,-171 -2,-172 20,-178 13,-3 35,-6 50,-6 21,0 29,-6 34,-25 12,-48 -6,-55 -145,-55 -69,0 -132,4 -139,9 -8,5 -12,21 -10,37 3,26 8,30 43,34 66,9 65,5 65,179 0,178 -2,184 -67,179 l -38,-3 -9,-78 c -8,-70 -11,-78 -32,-83 -47,-12 -57,10 -52,117 3,52 8,101 12,107 9,14 442,17 450,3 z M 4530,3878 c 0,-6 -8,-30 -19,-52 -10,-23 -30,-66 -44,-97 -32,-69 -46,-81 -89,-77 -30,3 -33,6 -32,33 1,17 7,46 14,65 30,82 39,106 44,123 4,14 17,17 66,17 39,0 60,-4 60,-12 z"
       id="path471" />
    <path
       d="m 6564,4158 c -49,-55 -64,-91 -64,-157 0,-94 44,-168 115,-191 62,-20 124,9 166,77 33,52 33,174 0,226 -37,60 -66,77 -130,77 -52,0 -60,-3 -87,-32 z"
       id="path473" />
    <path
       d="m 2216,4164 c -3,-9 -6,-35 -6,-59 0,-34 5,-47 19,-55 42,-22 129,-8 166,26 58,54 7,104 -106,104 -52,0 -68,-4 -73,-16 z"
       id="path475" />
    <path
       d="m 2239,3970 c -21,-5 -24,-12 -27,-64 -4,-83 4,-90 106,-83 69,4 88,9 108,28 55,52 6,110 -100,119 -35,3 -74,3 -87,0 z"
       id="path477" />
    <path
       d="m 3922,4108 c -13,-16 -52,-105 -52,-119 0,-12 107,-12 115,1 5,9 -30,105 -45,123 -4,4 -12,2 -18,-5 z"
       id="path479" />
    <path
       d="m 2040,3442 c -11,-4 -15,-1628 -4,-1656 6,-15 231,-16 2450,-16 2221,0 2445,1 2451,16 3,9 6,383 7,832 l 1,817 -2448,5 c -1346,3 -2452,4 -2457,2 z m 1535,-326 c 93,-21 134,-43 194,-105 88,-90 151,-246 151,-372 0,-167 -109,-371 -230,-433 -55,-28 -160,-56 -210,-56 -53,1 -161,28 -209,54 -85,45 -164,148 -206,266 -27,78 -27,262 0,340 21,57 72,151 102,185 95,107 256,155 408,121 z m 999,0 c 38,-8 74,-20 79,-25 18,-18 45,-12 52,10 6,19 12,20 68,14 34,-4 65,-9 70,-12 11,-7 8,-38 -9,-78 -11,-28 -15,-65 -13,-137 2,-54 -1,-102 -7,-107 -5,-5 -35,-12 -66,-16 -56,-7 -58,-6 -68,20 -5,14 -10,44 -10,65 0,71 -86,139 -176,140 -64,0 -139,-29 -179,-68 -31,-32 -35,-41 -35,-88 0,-48 3,-56 34,-80 40,-32 103,-50 201,-59 179,-15 286,-74 313,-171 46,-161 -49,-308 -230,-355 -95,-25 -152,-24 -265,6 -52,14 -99,23 -104,20 -5,-4 -9,-16 -9,-27 0,-19 -4,-20 -57,-15 -76,8 -89,22 -74,81 15,61 14,115 -4,166 -31,87 -14,110 80,110 48,0 44,5 60,-73 8,-39 48,-89 90,-113 34,-20 55,-23 143,-24 103,0 129,7 187,50 26,19 45,62 45,101 0,36 -50,89 -84,89 -50,0 -246,34 -298,52 -63,22 -126,71 -158,123 -17,28 -22,51 -22,113 0,65 4,84 27,124 46,82 126,140 225,163 76,17 114,17 194,1 z m -1609,-86 v -65 l -92,-3 c -51,-1 -93,-6 -93,-10 -1,-321 -10,-564 -22,-602 -30,-96 -81,-145 -184,-180 -102,-35 -198,-22 -396,57 -81,31 -79,28 -81,229 l -2,179 60,3 c 80,4 85,-4 85,-132 0,-122 15,-154 86,-185 66,-30 210,-30 246,-1 49,38 59,114 56,390 l -3,245 -150,5 -150,5 -3,44 c -2,25 -1,55 3,68 l 5,23 318,-2 317,-3 z m 2450,47 c 4,-13 5,-43 3,-68 l -3,-44 -65,-5 -65,-5 -3,-111 c -2,-87 0,-113 11,-117 8,-3 37,16 66,43 108,99 181,172 181,180 0,5 -12,10 -27,12 -25,3 -28,7 -31,47 -2,25 -1,55 3,68 5,23 6,23 179,23 200,0 199,0 194,-82 l -3,-53 -47,-5 c -43,-5 -56,-13 -149,-100 -56,-52 -118,-109 -137,-126 l -36,-30 28,-20 c 81,-55 173,-163 209,-244 4,-8 20,-37 35,-65 28,-49 30,-50 83,-55 l 54,-5 v -65 -65 l -90,-3 c -120,-4 -132,0 -145,46 -5,20 -28,72 -49,115 -61,120 -134,205 -200,233 -30,13 -35,12 -62,-6 -55,-40 -69,-71 -69,-152 0,-44 5,-79 12,-86 7,-7 36,-12 65,-12 60,0 67,-10 61,-91 l -3,-44 h -205 -205 l -3,47 c -5,71 9,88 67,88 29,0 53,6 60,14 8,9 11,101 9,317 l -3,304 -65,5 -65,5 -3,47 c -6,89 -9,88 213,88 h 195 z m 1094,-32 c 13,-27 30,-63 37,-80 6,-16 19,-46 27,-65 34,-78 48,-112 60,-142 8,-18 22,-51 31,-73 28,-63 41,-92 96,-225 29,-69 58,-128 64,-132 6,-4 25,-8 43,-8 22,0 36,-6 43,-19 15,-28 12,-97 -4,-110 -9,-8 -70,-11 -197,-9 l -184,3 -3,34 c -2,19 -1,50 3,68 6,33 7,33 61,33 64,0 77,16 51,62 -9,17 -17,36 -17,44 0,8 -12,19 -26,24 -29,12 -334,13 -350,2 -17,-12 -56,-101 -51,-117 4,-9 25,-15 64,-17 l 58,-3 v -65 -65 h -190 -190 l -3,44 c -5,72 3,91 41,91 45,0 61,15 87,80 22,54 28,67 69,160 69,155 161,376 161,387 0,10 -22,13 -84,13 -111,0 -116,2 -116,57 0,86 -5,84 207,81 l 187,-3 z"
       id="path481" />
    <path
       d="m 3373,2969 c -43,-20 -113,-83 -113,-102 0,-6 -6,-18 -13,-26 -33,-40 -49,-119 -45,-218 3,-85 8,-107 35,-163 34,-71 65,-107 122,-142 29,-19 50,-22 121,-22 75,0 90,3 127,27 66,42 113,114 139,214 44,170 -33,375 -163,433 -59,26 -152,26 -210,-1 z"
       id="path483" />
    <path
       d="m 6380,2793 c -18,-43 -43,-100 -56,-128 -12,-27 -20,-53 -18,-57 7,-10 221,-10 228,0 6,10 -99,255 -112,260 -5,1 -24,-32 -42,-75 z"
       id="path485" />
  </g>
</svg>
