<?xml version="1.0" encoding="UTF-8" standalone="no"?>
<svg
   version="1.0"
   width="484.60001pt"
   height="211.97769pt"
   viewBox="0 0 484.60001 211.97769"
   preserveAspectRatio="xMidYMid"
   id="svg131"
   sodipodi:docname="bej2.svg"
   inkscape:version="1.2.1 (9c6d41e, 2022-07-14)"
   xmlns:inkscape="http://www.inkscape.org/namespaces/inkscape"
   xmlns:sodipodi="http://sodipodi.sourceforge.net/DTD/sodipodi-0.dtd"
   xmlns="http://www.w3.org/2000/svg"
   xmlns:svg="http://www.w3.org/2000/svg">
  <defs
     id="defs135" />
  <sodipodi:namedview
     id="namedview133"
     pagecolor="#ffffff"
     bordercolor="#000000"
     borderopacity="0.25"
     inkscape:showpageshadow="2"
     inkscape:pageopacity="0.0"
     inkscape:pagecheckerboard="0"
     inkscape:deskcolor="#d1d1d1"
     inkscape:document-units="pt"
     showgrid="false"
     inkscape:zoom="0.28365385"
     inkscape:cx="327.86441"
     inkscape:cy="156.88136"
     inkscape:window-width="1512"
     inkscape:window-height="945"
     inkscape:window-x="0"
     inkscape:window-y="37"
     inkscape:window-maximized="0"
     inkscape:current-layer="svg131" />
  <metadata
     id="metadata101">
Created by potrace 1.10, written by Peter Selinger 2001-2011
</metadata>
  <g
     transform="matrix(0.1,0,0,-0.1,-205.9,427.0213)"
     fill="#000000"
     stroke="none"
     id="g129">
    <path
       d="m 6570,4257 c -50,-16 -121,-93 -142,-154 -22,-62 -23,-158 -3,-197 8,-15 15,-33 15,-38 0,-19 61,-87 97,-109 30,-19 51,-23 117,-23 113,0 156,28 218,141 28,51 25,199 -4,255 -60,115 -176,164 -298,125 z m 163,-87 c 52,-41 71,-87 71,-170 0,-62 -5,-84 -23,-113 -27,-43 -68,-75 -109,-83 -32,-6 -97,18 -120,46 -77,94 -68,241 20,315 39,33 122,35 161,5 z"
       id="path103" />
    <path
       d="m 2062,4218 c 2,-26 8,-34 28,-37 14,-1 28,-8 32,-15 4,-6 8,-81 8,-167 0,-122 -3,-159 -14,-168 -8,-6 -18,-11 -22,-10 -29,5 -35,-3 -32,-38 l 3,-38 150,-3 c 211,-4 267,16 307,107 19,41 19,45 3,87 -9,24 -21,44 -26,44 -5,0 -14,11 -21,25 -8,19 -8,29 5,48 34,52 25,99 -28,152 l -44,45 h -176 -176 z m 326,-58 c 40,-24 41,-52 5,-86 -24,-23 -34,-25 -102,-22 l -76,3 -3,39 c -2,22 -1,50 2,63 6,21 11,23 74,23 49,0 76,-5 100,-20 z m 23,-213 c 43,-29 49,-64 16,-95 -19,-18 -40,-24 -105,-29 -103,-8 -112,-1 -112,77 0,31 3,60 7,63 3,4 41,7 83,7 64,0 83,-4 111,-23 z"
       id="path105" />
    <path
       d="m 2613,4234 c -9,-23 10,-48 38,-52 44,-6 49,-25 49,-188 0,-164 -2,-170 -55,-176 -22,-2 -31,-9 -33,-26 -7,-49 5,-52 227,-52 113,0 213,5 221,10 11,7 16,35 18,120 4,119 0,129 -51,116 -21,-5 -25,-14 -33,-83 l -9,-78 -80,-3 c -136,-5 -126,-20 -123,181 l 3,172 30,3 c 67,6 76,11 73,40 l -3,27 -133,3 c -116,2 -133,1 -139,-14 z"
       id="path107" />
    <path
       d="m 3136,4235 c -8,-23 11,-55 33,-55 16,0 61,-38 61,-52 0,-4 19,-35 42,-70 66,-98 78,-125 78,-172 0,-51 -11,-63 -65,-68 -35,-3 -40,-7 -43,-29 -5,-44 14,-50 154,-47 l 129,3 3,34 c 4,39 -10,52 -48,44 -66,-13 -68,92 -4,195 21,35 44,71 49,80 32,54 50,72 81,82 30,10 35,16 32,38 l -3,27 h -100 c -89,0 -100,-2 -103,-18 -2,-11 6,-29 18,-42 12,-13 21,-27 19,-32 -12,-25 -72,-113 -78,-113 -10,0 -41,34 -41,44 0,4 -9,19 -20,33 -26,33 -25,55 1,71 13,8 19,21 17,35 -3,21 -9,22 -104,25 -86,2 -103,0 -108,-13 z"
       id="path109" />
    <path
       d="m 3746,4235 c -12,-33 12,-55 59,-55 38,0 45,-3 45,-20 0,-11 -4,-28 -9,-38 -14,-26 -47,-102 -89,-202 -29,-68 -40,-85 -66,-98 -30,-15 -37,-66 -10,-76 24,-9 167,-7 182,3 22,14 11,65 -15,69 -12,2 -27,10 -34,18 -10,12 -8,19 11,39 21,23 31,25 109,25 92,0 99,-3 118,-37 11,-19 10,-24 -6,-33 -11,-5 -27,-10 -35,-10 -21,0 -32,-46 -16,-65 9,-11 34,-15 95,-15 102,0 115,4 115,40 0,21 -8,33 -35,49 -19,11 -35,28 -35,37 0,9 -6,28 -14,42 -8,15 -44,97 -79,182 l -66,155 -109,3 c -93,2 -111,0 -116,-13 z m 204,-137 c 0,-7 9,-31 21,-55 11,-23 18,-47 14,-53 -3,-5 -31,-10 -61,-10 -40,0 -54,4 -54,14 0,8 5,18 10,21 6,3 10,14 10,23 0,25 39,84 50,77 6,-3 10,-11 10,-17 z"
       id="path111" />
    <path
       d="m 5332,4218 c 2,-24 9,-34 23,-36 40,-7 45,-29 45,-188 0,-117 -3,-154 -14,-163 -8,-6 -18,-11 -22,-10 -29,5 -35,-3 -32,-38 l 3,-38 h 220 220 l 3,93 c 2,79 0,93 -14,99 -27,10 -49,-11 -55,-56 -3,-24 -12,-47 -20,-52 -16,-10 -169,-12 -193,-3 -20,8 -23,128 -4,141 30,18 88,3 88,-23 0,-18 43,-39 64,-31 13,5 16,24 16,97 0,73 -3,92 -16,97 -21,8 -64,-13 -64,-31 0,-19 -15,-28 -50,-32 -39,-5 -52,16 -48,78 l 3,53 94,3 c 55,2 98,-1 104,-7 6,-6 13,-30 16,-53 6,-41 7,-43 44,-46 l 38,-3 -3,88 -3,88 -223,3 -223,2 z"
       id="path113" />
    <path
       d="m 5883,4238 c -4,-7 -9,-56 -11,-108 -5,-106 5,-128 52,-116 21,5 24,13 32,83 l 9,78 38,3 c 65,5 67,-1 67,-179 0,-174 1,-170 -65,-179 -38,-5 -40,-7 -40,-40 v -35 l 136,-3 c 149,-3 167,3 155,53 -5,19 -13,25 -34,25 -15,0 -37,3 -50,6 -22,6 -22,7 -20,178 l 3,171 h 50 50 l 6,-73 c 5,-74 15,-92 50,-92 35,0 42,26 35,127 -4,53 -9,100 -12,104 -9,15 -441,11 -451,-3 z"
       id="path115" />
    <path
       d="m 4404,3873 c -5,-17 -14,-41 -44,-123 -7,-19 -13,-48 -14,-65 -1,-27 2,-30 32,-33 43,-4 57,8 89,77 14,31 34,74 44,97 29,61 26,64 -41,64 -49,0 -62,-3 -66,-17 z"
       id="path117" />
    <path
       d="m 3370,3115 c -112,-24 -219,-113 -271,-225 -51,-109 -53,-119 -53,-250 0,-134 3,-144 58,-259 29,-60 115,-152 168,-177 114,-56 210,-67 318,-35 92,27 128,48 186,106 83,86 144,239 144,365 0,129 -61,279 -151,371 -60,62 -101,84 -194,105 -71,16 -130,16 -205,-1 z m 213,-145 c 130,-58 205,-256 163,-430 -24,-99 -72,-174 -139,-217 -37,-24 -52,-27 -127,-27 -50,0 -95,5 -108,13 -51,28 -105,87 -135,150 -27,57 -32,79 -35,164 -4,99 12,178 45,218 7,8 13,20 13,26 0,19 70,82 113,102 58,27 151,27 210,1 z"
       id="path119" />
    <path
       d="m 4380,3115 c -70,-16 -106,-35 -163,-85 -66,-58 -92,-118 -90,-207 1,-55 6,-80 23,-107 32,-53 94,-102 158,-124 52,-18 248,-52 298,-52 12,0 36,-13 53,-29 58,-54 30,-144 -59,-188 -38,-19 -61,-23 -145,-22 -85,0 -106,3 -140,23 -42,24 -82,74 -90,113 -16,78 -12,73 -60,73 -24,0 -56,-5 -70,-10 -30,-11 -30,-19 -4,-132 11,-47 11,-69 0,-119 -15,-77 -7,-88 72,-96 53,-5 57,-4 57,15 0,11 4,23 9,27 5,3 52,-6 104,-20 113,-30 179,-31 268,-6 81,23 111,41 169,102 67,70 86,149 59,249 -27,100 -132,160 -304,174 -107,9 -170,27 -211,60 -31,24 -34,32 -34,80 0,47 4,57 34,87 41,39 113,67 176,68 93,1 180,-66 180,-139 0,-21 5,-51 10,-65 10,-26 12,-27 68,-20 31,4 61,11 66,16 6,5 9,53 7,107 -2,72 2,109 13,137 17,40 20,71 9,78 -5,3 -36,8 -70,12 -56,6 -62,5 -68,-14 -7,-22 -34,-28 -52,-10 -13,13 -138,39 -183,38 -19,-1 -60,-7 -90,-14 z"
       id="path121" />
    <path
       d="m 2325,3077 c -4,-13 -5,-43 -3,-68 l 3,-44 150,-5 150,-5 3,-245 c 3,-276 -7,-352 -56,-390 -36,-29 -180,-29 -246,1 -72,32 -86,62 -86,190 0,127 -3,131 -87,127 l -58,-3 1,-178 c 2,-189 4,-200 54,-219 94,-38 134,-52 203,-69 99,-24 149,-24 221,1 60,20 146,76 146,95 0,6 5,16 12,23 32,32 41,107 44,377 2,149 4,275 4,282 0,9 28,13 93,15 l 92,3 v 65 65 l -317,3 -318,2 z"
       id="path123" />
    <path
       d="m 5010,3080 c -6,-12 -10,-42 -8,-68 l 3,-47 65,-5 65,-5 3,-304 c 2,-216 -1,-308 -9,-317 -7,-8 -31,-14 -60,-14 -58,0 -72,-17 -67,-88 l 3,-47 h 205 205 l 3,44 c 6,81 -1,91 -61,91 -29,0 -58,5 -65,12 -7,7 -12,42 -12,86 0,81 14,112 69,152 27,18 32,19 62,6 66,-28 139,-113 200,-233 21,-43 44,-95 49,-115 13,-46 25,-50 145,-46 l 90,3 v 65 65 l -54,5 c -53,5 -55,6 -83,55 -15,28 -32,59 -37,70 -5,11 -21,37 -35,58 -14,21 -26,42 -26,46 0,10 -106,108 -145,135 l -29,20 36,30 c 19,17 81,74 137,126 93,87 106,95 149,100 l 47,5 3,56 c 2,39 -1,59 -11,68 -10,8 -66,11 -188,9 l -174,-3 v -65 c 0,-63 1,-65 28,-68 15,-2 27,-7 27,-12 0,-5 -23,-31 -51,-57 -221,-207 -209,-204 -209,-53 0,124 -5,117 90,122 l 45,3 3,44 c 2,25 1,55 -3,68 l -5,23 h -195 c -185,0 -195,-1 -205,-20 z"
       id="path125" />
    <path
       d="m 6102,3088 c -19,-19 -16,-114 4,-122 9,-3 54,-6 100,-6 65,0 84,-3 84,-14 0,-12 -14,-47 -71,-176 -24,-54 -44,-99 -62,-143 -7,-17 -22,-50 -31,-72 -10,-22 -25,-56 -33,-75 -8,-19 -21,-48 -29,-63 -8,-16 -14,-35 -14,-43 0,-26 -39,-54 -75,-54 -40,0 -48,-18 -43,-91 l 3,-44 h 190 190 v 65 65 l -58,3 c -39,2 -60,8 -64,17 -5,16 34,105 51,117 16,11 321,10 350,-2 14,-5 26,-16 26,-24 0,-8 8,-27 17,-44 26,-46 13,-62 -51,-62 -63,0 -70,-9 -64,-91 l 3,-44 h 190 190 v 65 65 l -42,6 c -24,3 -44,7 -47,10 -2,2 -20,45 -41,94 -20,50 -43,104 -50,120 -7,17 -20,46 -28,65 -8,19 -23,53 -33,75 -9,22 -23,55 -31,73 -12,30 -26,64 -60,142 -8,19 -20,49 -27,65 -7,17 -23,53 -37,80 l -24,50 -185,3 c -136,2 -189,-1 -198,-10 z m 383,-348 c 29,-69 51,-128 49,-132 -7,-10 -221,-10 -228,0 -2,4 6,30 18,57 13,28 38,85 56,128 18,43 37,76 42,75 6,-2 34,-60 63,-128 z"
       id="path127" />
  </g>
</svg>
