<?xml version="1.0" encoding="UTF-8" standalone="no"?>
<svg
   version="1.0"
   width="487.33749pt"
   height="267.98169pt"
   viewBox="0 0 487.33749 267.98169"
   preserveAspectRatio="xMidYMid"
   id="svg615"
   sodipodi:docname="bej3.svg"
   inkscape:version="1.2.1 (9c6d41e, 2022-07-14)"
   xmlns:inkscape="http://www.inkscape.org/namespaces/inkscape"
   xmlns:sodipodi="http://sodipodi.sourceforge.net/DTD/sodipodi-0.dtd"
   xmlns="http://www.w3.org/2000/svg"
   xmlns:svg="http://www.w3.org/2000/svg">
  <defs
     id="defs619" />
  <sodipodi:namedview
     id="namedview617"
     pagecolor="#ffffff"
     bordercolor="#000000"
     borderopacity="0.25"
     inkscape:showpageshadow="2"
     inkscape:pageopacity="0.0"
     inkscape:pagecheckerboard="0"
     inkscape:deskcolor="#d1d1d1"
     inkscape:document-units="pt"
     showgrid="false"
     inkscape:zoom="0.28365385"
     inkscape:cx="327.86441"
     inkscape:cy="178.0339"
     inkscape:window-width="1512"
     inkscape:window-height="917"
     inkscape:window-x="0"
     inkscape:window-y="65"
     inkscape:window-maximized="0"
     inkscape:current-layer="svg615" />
  <metadata
     id="metadata583">
Created by potrace 1.10, written by Peter Selinger 2001-2011
</metadata>
  <g
     transform="matrix(0.1,0,0,-0.1,-203.1625,445.10468)"
     fill="#000000"
     stroke="none"
     id="g613">
    <path
       d="m 2035,4438 c -3,-7 -4,-215 -3,-463 l 3,-450 1309,-3 c 985,-1 1312,1 1323,10 8,6 25,36 39,67 15,31 39,83 54,116 15,33 37,80 48,105 11,25 35,77 52,115 18,39 43,95 57,125 14,30 39,84 55,120 17,36 44,94 60,130 16,36 36,77 45,93 8,15 11,32 8,37 -10,16 -3044,14 -3050,-2 z m 420,-233 c 39,-39 45,-50 45,-87 0,-24 -7,-52 -15,-62 -20,-26 -19,-42 3,-64 10,-10 26,-35 36,-56 17,-36 17,-41 2,-81 -36,-94 -98,-117 -311,-113 l -150,3 v 35 c 0,27 5,36 20,38 43,8 45,18 45,181 0,86 -4,161 -8,167 -4,7 -18,14 -32,15 -25,4 -37,28 -26,55 4,11 37,14 176,14 h 171 z m 433,13 c 3,-29 -6,-34 -73,-40 l -30,-3 v -175 -175 h 100 100 l 10,72 c 11,80 21,96 56,91 24,-3 24,-5 24,-116 0,-89 -3,-115 -15,-122 -8,-5 -108,-10 -221,-10 -225,0 -238,3 -225,55 5,19 13,25 34,25 48,0 52,12 52,175 0,162 -5,181 -49,187 -28,4 -47,29 -38,52 6,15 23,16 139,14 l 133,-3 z m 460,5 c 2,-14 -4,-27 -17,-35 -26,-16 -27,-38 -1,-71 11,-14 20,-29 20,-33 0,-4 7,-16 17,-26 18,-20 43,-24 43,-7 0,6 14,31 30,56 36,52 36,55 10,78 -12,11 -20,28 -18,39 3,20 10,21 103,21 h 100 l 3,-27 c 3,-22 -2,-28 -32,-38 -31,-10 -49,-28 -81,-82 -5,-9 -29,-48 -52,-87 -35,-57 -43,-78 -43,-119 0,-55 15,-75 52,-72 46,4 49,1 46,-37 l -3,-38 -129,-3 c -140,-3 -159,3 -154,47 3,22 8,26 43,29 54,5 65,17 65,68 0,47 -12,74 -78,172 -23,35 -42,66 -42,70 0,14 -45,52 -61,52 -22,0 -41,32 -33,55 5,13 22,15 108,13 95,-3 101,-4 104,-25 z m 674,-98 c 59,-141 76,-181 95,-217 7,-14 13,-33 13,-42 0,-9 16,-26 35,-37 37,-22 46,-54 23,-77 -18,-18 -182,-16 -198,3 -16,19 -5,65 16,65 8,0 24,5 35,10 16,9 17,14 8,33 -18,34 -28,37 -118,37 -73,0 -88,-3 -108,-22 -32,-30 -29,-46 10,-56 25,-6 33,-14 35,-36 2,-16 -2,-33 -10,-37 -15,-10 -158,-12 -182,-3 -27,10 -20,61 10,76 30,15 35,23 97,168 28,66 50,115 58,132 5,10 9,27 9,38 0,17 -7,20 -45,20 -47,0 -71,22 -59,55 5,13 23,15 116,13 l 109,-3 z m 508,-247 c 0,-6 -8,-30 -19,-52 -10,-23 -30,-66 -44,-97 -32,-69 -46,-81 -89,-77 -30,3 -33,6 -32,33 1,17 7,46 14,65 30,82 39,106 44,123 4,14 17,17 66,17 39,0 60,-4 60,-12 z"
       id="path585" />
    <path
       d="m 2216,4164 c -3,-9 -6,-35 -6,-59 0,-34 5,-47 19,-55 42,-22 129,-8 166,26 58,54 7,104 -106,104 -52,0 -68,-4 -73,-16 z"
       id="path587" />
    <path
       d="m 2239,3970 c -21,-5 -24,-12 -27,-64 -4,-83 4,-90 106,-83 69,4 88,9 108,28 55,52 6,110 -100,119 -35,3 -74,3 -87,0 z"
       id="path589" />
    <path
       d="m 3922,4108 c -13,-16 -52,-105 -52,-119 0,-12 107,-12 115,1 5,9 -30,105 -45,123 -4,4 -12,2 -18,-5 z"
       id="path591" />
    <path
       d="m 6570,4257 c -50,-16 -121,-93 -142,-154 -22,-62 -23,-158 -3,-197 8,-15 15,-33 15,-38 0,-19 61,-87 97,-109 30,-19 51,-23 117,-23 113,0 156,28 218,141 28,51 25,199 -4,255 -60,115 -176,164 -298,125 z m 163,-87 c 52,-41 71,-87 71,-170 0,-62 -5,-84 -23,-113 -27,-43 -68,-75 -109,-83 -32,-6 -97,18 -120,46 -77,94 -68,241 20,315 39,33 122,35 161,5 z"
       id="path593" />
    <path
       d="m 5332,4218 c 2,-24 9,-34 23,-36 40,-7 45,-29 45,-188 0,-117 -3,-154 -14,-163 -8,-6 -18,-11 -22,-10 -29,5 -35,-3 -32,-38 l 3,-38 h 220 220 l 3,93 c 2,79 0,93 -14,99 -27,10 -49,-11 -55,-56 -3,-24 -12,-47 -20,-52 -16,-10 -169,-12 -193,-3 -20,8 -23,128 -4,141 30,18 88,3 88,-23 0,-18 43,-39 64,-31 13,5 16,24 16,97 0,73 -3,92 -16,97 -21,8 -64,-13 -64,-31 0,-19 -15,-28 -50,-32 -39,-5 -52,16 -48,78 l 3,53 94,3 c 55,2 98,-1 104,-7 6,-6 13,-30 16,-53 6,-41 7,-43 44,-46 l 38,-3 -3,88 -3,88 -223,3 -223,2 z"
       id="path595" />
    <path
       d="m 5883,4238 c -4,-7 -9,-56 -11,-108 -5,-106 5,-128 52,-116 21,5 24,13 32,83 l 9,78 38,3 c 65,5 67,-1 67,-179 0,-174 1,-170 -65,-179 -38,-5 -40,-7 -40,-40 v -35 l 136,-3 c 149,-3 167,3 155,53 -5,19 -13,25 -34,25 -15,0 -37,3 -50,6 -22,6 -22,7 -20,178 l 3,171 h 50 50 l 6,-73 c 5,-74 15,-92 50,-92 35,0 42,26 35,127 -4,53 -9,100 -12,104 -9,15 -441,11 -451,-3 z"
       id="path597" />
    <path
       d="m 2039,3444 c -5,-7 -8,-346 -7,-840 l 3,-829 909,-3 c 835,-2 911,-1 928,14 10,10 18,22 18,28 0,6 13,38 29,71 31,65 77,164 109,235 79,174 85,201 57,280 -18,51 -19,86 -4,96 7,4 37,10 67,13 55,6 57,7 81,53 l 25,47 -41,36 c -69,58 -85,93 -85,183 0,65 4,84 27,124 50,89 137,146 255,169 36,6 71,17 78,22 7,6 24,35 39,66 14,31 42,92 63,136 25,52 35,83 29,90 -15,15 -2568,24 -2580,9 z m 1536,-328 c 93,-21 134,-43 194,-105 88,-90 151,-246 151,-372 0,-167 -109,-371 -230,-433 -55,-28 -160,-56 -210,-56 -53,1 -161,28 -209,54 -85,45 -164,148 -206,266 -27,78 -27,262 0,340 21,57 72,151 102,185 95,107 256,155 408,121 z m -610,-86 v -65 l -92,-3 c -51,-1 -93,-6 -93,-10 -1,-321 -10,-564 -22,-602 -30,-96 -81,-145 -184,-180 -102,-35 -198,-22 -396,57 -81,31 -79,28 -81,229 l -2,179 60,3 c 80,4 85,-4 85,-132 0,-122 15,-154 86,-185 66,-30 210,-30 246,-1 49,38 59,114 56,390 l -3,245 -150,5 -150,5 -3,44 c -2,25 -1,55 3,68 l 5,23 318,-2 317,-3 z"
       id="path599" />
    <path
       d="m 3373,2969 c -43,-20 -113,-83 -113,-102 0,-6 -6,-18 -13,-26 -33,-40 -49,-119 -45,-218 3,-85 8,-107 35,-163 34,-71 65,-107 122,-142 29,-19 50,-22 121,-22 75,0 90,3 127,27 66,42 113,114 139,214 44,170 -33,375 -163,433 -59,26 -152,26 -210,-1 z"
       id="path601" />
    <path
       d="m 4506,3067 c -33,-68 -32,-77 2,-77 77,-1 162,-74 162,-140 0,-21 5,-51 10,-65 10,-26 12,-27 68,-20 31,4 61,11 66,16 6,5 9,53 7,107 -2,72 2,109 13,137 17,40 20,71 9,78 -5,3 -36,8 -70,12 -56,6 -62,5 -68,-14 -7,-24 -27,-27 -58,-7 -12,8 -43,17 -69,20 l -47,7 z"
       id="path603" />
    <path
       d="m 5010,3080 c -6,-12 -10,-42 -8,-68 l 3,-47 65,-5 65,-5 3,-304 c 2,-216 -1,-308 -9,-317 -7,-8 -31,-14 -60,-14 -58,0 -72,-17 -67,-88 l 3,-47 h 205 205 l 3,44 c 6,81 -1,91 -61,91 -29,0 -58,5 -65,12 -7,7 -12,42 -12,86 0,81 14,112 69,152 27,18 32,19 62,6 66,-28 139,-113 200,-233 21,-43 44,-95 49,-115 13,-46 25,-50 145,-46 l 90,3 v 65 65 l -54,5 c -53,5 -55,6 -83,55 -15,28 -32,59 -37,70 -5,11 -21,37 -35,58 -14,21 -26,42 -26,46 0,10 -106,108 -145,135 l -29,20 36,30 c 19,17 81,74 137,126 93,87 106,95 149,100 l 47,5 3,56 c 2,39 -1,59 -11,68 -10,8 -66,11 -188,9 l -174,-3 v -65 c 0,-63 1,-65 28,-68 15,-2 27,-7 27,-12 0,-5 -23,-31 -51,-57 -221,-207 -209,-204 -209,-53 0,124 -5,117 90,122 l 45,3 3,44 c 2,25 1,55 -3,68 l -5,23 h -195 c -185,0 -195,-1 -205,-20 z"
       id="path605" />
    <path
       d="m 6102,3088 c -19,-19 -16,-114 4,-122 9,-3 54,-6 100,-6 65,0 84,-3 84,-14 0,-12 -14,-47 -71,-176 -24,-54 -44,-99 -62,-143 -7,-17 -22,-50 -31,-72 -10,-22 -25,-56 -33,-75 -8,-19 -21,-48 -29,-63 -8,-16 -14,-35 -14,-43 0,-26 -39,-54 -75,-54 -40,0 -48,-18 -43,-91 l 3,-44 h 190 190 v 65 65 l -58,3 c -39,2 -60,8 -64,17 -5,16 34,105 51,117 16,11 321,10 350,-2 14,-5 26,-16 26,-24 0,-8 8,-27 17,-44 26,-46 13,-62 -51,-62 -63,0 -70,-9 -64,-91 l 3,-44 h 190 190 v 65 65 l -42,6 c -24,3 -44,7 -47,10 -2,2 -20,45 -41,94 -20,50 -43,104 -50,120 -7,17 -20,46 -28,65 -8,19 -23,53 -33,75 -9,22 -23,55 -31,73 -12,30 -26,64 -60,142 -8,19 -20,49 -27,65 -7,17 -23,53 -37,80 l -24,50 -185,3 c -136,2 -189,-1 -198,-10 z m 383,-348 c 29,-69 51,-128 49,-132 -7,-10 -221,-10 -228,0 -2,4 6,30 18,57 13,28 38,85 56,128 18,43 37,76 42,75 6,-2 34,-60 63,-128 z"
       id="path607" />
    <path
       d="m 4365,2961 c -11,-5 -35,-24 -53,-42 -28,-28 -32,-40 -32,-85 0,-59 19,-86 45,-64 8,7 15,18 15,24 0,7 14,39 30,71 28,55 39,106 23,104 -5,0 -17,-4 -28,-8 z"
       id="path609" />
    <path
       d="m 4323,2672 c -27,-58 -28,-66 -9,-81 13,-11 144,-35 264,-48 101,-11 142,-86 89,-164 -38,-57 -96,-79 -209,-79 -108,0 -160,18 -198,69 -45,60 -55,64 -66,29 -7,-24 -54,-129 -82,-186 -16,-32 -16,-34 2,-48 11,-8 39,-14 63,-14 36,0 43,3 43,19 0,11 4,22 9,26 5,3 52,-6 104,-20 113,-30 179,-31 268,-6 81,23 111,41 169,102 109,113 91,299 -35,367 -54,29 -129,51 -175,52 -25,1 -67,5 -95,11 -129,24 -117,26 -142,-29 z"
       id="path611" />
  </g>
</svg>
